<?xml version="1.0" standalone="no"?>
<!DOCTYPE svg PUBLIC "-//W3C//DTD SVG 20010904//EN"
 "http://www.w3.org/TR/2001/REC-SVG-20010904/DTD/svg10.dtd">
<svg version="1.0" xmlns="http://www.w3.org/2000/svg"
 width="520.000000pt" height="480.000000pt" viewBox="0 0 520.000000 480.000000"
 preserveAspectRatio="xMidYMid meet">

<g transform="translate(0.000000,480.000000) scale(0.100000,-0.100000)"
fill="#000000" stroke="none">
<path fill="#262626" d="M2991 4424 c-42 -21 -62 -40 -92 -88 -49 -74 -53 -90 -45 -169 9 -78
38 -132 96 -174 25 -18 57 -42 73 -53 l27 -22 0 -308 c0 -169 -3 -322 -6 -339
l-6 -31 -318 0 c-294 0 -318 1 -333 18 -15 17 -17 55 -17 340 l0 322 -440 0
-440 0 -20 41 c-26 49 -100 126 -136 139 -14 6 -66 10 -115 10 -77 0 -95 -3
-127 -24 -43 -27 -79 -70 -112 -135 -40 -79 -12 -207 61 -280 68 -69 209 -102
279 -66 48 25 129 103 151 147 l20 38 372 -2 372 -3 3 -250 c1 -137 0 -260 -3
-272 -5 -23 -5 -23 -229 -23 -223 0 -224 0 -230 -22 -3 -13 -6 -116 -6 -230
l0 -208 -345 0 -345 0 -14 34 c-20 49 -85 116 -131 137 -49 23 -171 25 -219 5
-119 -50 -183 -194 -146 -328 14 -49 87 -128 145 -157 40 -20 58 -23 120 -19
96 6 141 33 209 124 l51 69 324 3 c230 2 328 -1 337 -9 11 -9 14 -72 14 -324
0 -173 -3 -320 -6 -329 -5 -14 -42 -16 -309 -16 -166 0 -317 -3 -335 -6 l-32
-7 6 -236 c4 -130 3 -325 0 -433 l-7 -197 -56 -33 c-114 -67 -168 -196 -127
-303 42 -108 122 -173 224 -182 83 -8 159 16 210 66 65 63 74 83 79 174 5 75
3 87 -20 134 -28 54 -67 93 -127 123 l-37 19 -7 168 c-3 92 -4 258 -1 368 5
194 6 200 28 213 17 10 80 12 257 10 129 -2 241 -7 248 -11 9 -6 12 -64 12
-231 l0 -223 77 -7 c42 -3 145 -6 228 -6 130 0 154 -2 159 -16 3 -9 6 -160 6
-338 l0 -321 -67 -45 c-60 -40 -72 -54 -106 -120 -32 -63 -37 -81 -32 -115 9
-63 51 -138 104 -188 56 -52 86 -61 194 -56 63 4 79 8 116 36 86 63 126 145
119 243 -5 73 -45 141 -108 187 -99 71 -90 33 -90 370 0 164 3 315 6 335 l6
37 262 0 c143 1 294 -2 334 -5 l72 -7 0 -327 0 -328 23 -5 c12 -3 201 -6 420
-7 219 -1 407 -4 417 -8 11 -4 35 -29 54 -56 45 -64 105 -111 167 -131 49 -17
52 -16 134 9 90 28 125 57 165 136 27 52 27 168 1 225 -57 126 -220 191 -337
135 -52 -26 -119 -93 -142 -142 l-17 -37 -372 -1 c-287 0 -374 3 -380 13 -8
13 -6 514 3 528 3 5 108 9 235 9 l229 0 0 224 0 224 28 11 c19 8 122 11 336 9
l310 -3 46 -65 c26 -36 66 -78 89 -95 39 -28 50 -30 139 -33 l97 -3 49 38 c27
21 63 58 80 81 29 41 31 50 31 130 0 98 -15 140 -69 193 -84 84 -220 106 -307
51 -47 -31 -101 -87 -132 -139 l-19 -33 -339 0 -339 0 0 318 c0 174 3 327 6
340 l6 22 329 0 329 0 0 348 c0 192 3 390 7 441 6 90 6 92 37 106 117 56 187
198 156 314 -17 64 -115 165 -175 180 -105 26 -197 7 -259 -55 -61 -60 -86
-119 -86 -198 0 -97 35 -157 128 -219 l72 -49 -2 -366 -3 -367 -270 0 -270 0
-3 228 -2 227 -229 0 -228 0 -12 43 c-13 47 -9 609 4 640 4 10 26 27 49 39 96
48 139 117 139 223 0 94 -14 132 -71 187 -76 73 -87 78 -177 78 -68 0 -90 -4
-134 -26z m211 -121 c9 -10 26 -38 38 -62 19 -39 21 -49 11 -82 -6 -20 -27
-51 -46 -68 -30 -26 -44 -31 -86 -31 -94 0 -139 41 -139 129 0 50 3 59 37 93
36 36 40 38 103 38 51 0 71 -4 82 -17z m-1928 -317 c44 -18 86 -75 93 -125 5
-36 2 -43 -42 -90 -45 -48 -51 -51 -98 -51 -45 0 -53 4 -93 44 -39 38 -44 49
-44 88 0 61 43 122 97 136 52 14 50 14 87 -2z m3041 -72 c51 -24 85 -74 85
-126 0 -38 -6 -49 -45 -91 -42 -43 -49 -47 -94 -47 -45 0 -51 3 -95 50 -40 43
-46 55 -46 93 0 40 5 49 50 91 55 51 87 58 145 30z m-1027 -801 l242 -6 -2
-801 -3 -801 -804 -3 c-443 -1 -809 2 -813 6 -9 9 -18 1460 -10 1549 l5 53
156 3 c343 6 1001 7 1229 0z m-2426 -268 c19 -8 49 -30 67 -50 25 -29 31 -44
31 -83 0 -41 -5 -54 -39 -92 -36 -42 -43 -45 -84 -43 -57 2 -125 36 -137 69
-6 14 -10 47 -10 73 0 59 25 95 84 122 50 23 46 22 88 4z m3802 -819 c47 -20
66 -51 66 -111 0 -64 -15 -92 -67 -129 -40 -28 -45 -29 -82 -17 -22 6 -56 27
-76 45 -32 31 -35 38 -35 91 0 49 4 63 31 96 28 36 35 39 80 39 27 0 65 -6 83
-14z m-3414 -1102 c55 -51 61 -77 36 -137 -18 -45 -80 -97 -114 -97 -45 1
-110 36 -132 72 -40 67 -13 154 60 190 60 31 94 24 150 -28z m3039 -69 c35
-38 41 -51 41 -87 0 -103 -104 -177 -188 -134 -61 32 -97 98 -85 158 3 17 24
48 46 69 37 35 46 39 93 39 48 0 54 -3 93 -45z m-1879 -342 c34 -53 39 -107
15 -153 -24 -46 -52 -60 -121 -60 -60 0 -63 1 -99 41 -35 40 -37 44 -33 97 4
48 10 60 41 89 34 30 42 33 102 33 l65 0 30 -47z"/>
</g>
</svg>
