<?xml version="1.0" encoding="UTF-8" standalone="no"?>
<svg
   width="1375pt"
   height="922pt"
   viewBox="0 0 1375 922"
   version="1.1"
   id="svg34"
   sodipodi:docname="Screenshot 2022-06-17 094321.svg"
   inkscape:version="1.2 (dc2aedaf03, 2022-05-15)"
   xmlns:inkscape="http://www.inkscape.org/namespaces/inkscape"
   xmlns:sodipodi="http://sodipodi.sourceforge.net/DTD/sodipodi-0.dtd"
   xmlns="http://www.w3.org/2000/svg"
   xmlns:svg="http://www.w3.org/2000/svg">
  <defs
     id="defs38" />
  <sodipodi:namedview
     id="namedview36"
     pagecolor="#505050"
     bordercolor="#eeeeee"
     borderopacity="1"
     inkscape:showpageshadow="0"
     inkscape:pageopacity="0"
     inkscape:pagecheckerboard="0"
     inkscape:deskcolor="#505050"
     inkscape:document-units="pt"
     showgrid="false"
     inkscape:zoom="0.66"
     inkscape:cx="356.06061"
     inkscape:cy="615.15152"
     inkscape:window-width="1920"
     inkscape:window-height="1009"
     inkscape:window-x="1912"
     inkscape:window-y="-8"
     inkscape:window-maximized="1"
     inkscape:current-layer="svg34" />
  <g
     id="#2d2d2dff">
    <path
       fill="#2d2d2d"
       opacity="1.00"
       d=" M 725.65 194.70 C 727.42 192.86 729.81 191.91 732.36 192.47 C 732.58 195.01 732.65 197.56 732.33 200.10 C 730.79 204.62 730.22 209.42 728.81 213.98 C 728.61 215.02 728.43 216.06 728.26 217.11 C 727.21 220.34 726.74 223.71 725.80 226.96 C 725.51 228.31 725.28 229.68 724.84 230.99 C 724.62 232.02 724.43 233.06 724.25 234.10 C 723.20 237.31 722.74 240.67 721.85 243.92 C 721.53 245.28 721.26 246.65 720.83 247.97 C 720.62 249.01 720.43 250.06 720.25 251.11 C 719.24 254.33 718.73 257.68 717.83 260.94 C 717.52 262.28 717.26 263.64 716.88 264.96 C 715.94 268.60 715.16 272.33 715.68 276.11 C 716.29 278.12 716.91 280.15 717.71 282.11 C 721.11 290.09 729.61 293.15 736.51 297.31 C 740.23 299.32 744.78 302.20 744.70 306.98 C 745.11 310.46 744.36 314.17 741.53 316.48 C 717.19 339.48 692.89 362.54 668.53 385.53 C 664.07 389.75 659.82 394.22 654.97 397.99 C 653.47 399.24 651.47 398.56 649.76 398.30 C 649.46 395.12 650.05 391.99 650.80 388.92 C 652.08 384.33 652.89 379.62 654.20 375.04 C 654.38 373.98 654.57 372.93 654.76 371.89 C 655.75 368.66 656.30 365.31 657.19 362.06 C 657.46 360.69 657.73 359.34 658.17 358.02 C 658.36 356.98 658.56 355.94 658.76 354.91 C 659.75 351.67 660.29 348.31 661.17 345.05 C 661.44 343.69 661.73 342.34 662.17 341.02 C 662.36 339.98 662.55 338.94 662.76 337.90 C 663.74 334.66 664.29 331.30 665.18 328.03 C 665.44 326.67 665.70 325.30 666.22 324.01 C 667.03 319.29 667.11 314.33 665.37 309.80 C 660.68 299.33 648.45 296.53 640.12 289.90 C 639.11 288.75 638.47 287.34 637.67 286.06 C 636.36 280.63 639.49 275.79 643.55 272.54 C 670.96 246.64 698.27 220.64 725.65 194.70 Z"
       id="path13" />
    <path
       fill="#2d2d2d"
       opacity="1.00"
       d=" M 472.40 444.48 C 477.99 444.47 483.59 444.29 489.18 444.67 C 489.69 445.01 490.70 445.69 491.21 446.03 C 491.56 451.70 491.39 457.39 491.15 463.07 C 490.16 472.92 490.40 482.92 490.53 492.82 C 491.57 491.72 492.47 490.51 493.23 489.20 C 501.10 474.76 509.02 460.34 516.87 445.88 C 517.35 445.58 518.31 444.96 518.79 444.65 C 525.41 444.33 532.04 444.39 538.67 444.56 C 538.67 446.39 538.62 448.26 537.91 449.99 C 529.59 465.83 518.94 480.38 511.63 496.77 C 511.59 498.26 511.22 499.82 511.65 501.29 C 520.89 518.27 530.26 535.20 539.87 551.99 C 541.48 554.95 544.09 557.62 543.70 561.26 C 538.29 563.48 532.60 560.75 527.06 561.94 C 525.29 562.40 523.62 561.79 522.00 561.19 C 511.17 544.49 502.37 526.59 492.11 509.55 C 491.68 509.47 490.83 509.31 490.40 509.23 C 490.66 517.45 490.17 525.75 491.17 533.92 C 491.30 536.70 491.40 539.50 491.07 542.29 C 490.20 548.57 490.79 554.94 490.31 561.26 C 487.88 562.02 485.32 562.60 482.78 562.05 C 478.72 561.31 474.59 561.95 470.50 561.56 C 470.25 556.69 470.34 551.82 470.20 546.95 C 469.86 546.01 469.68 545.05 469.66 544.06 C 469.72 524.72 469.69 505.37 469.68 486.03 C 469.70 485.02 469.87 484.03 470.18 483.07 C 470.51 471.35 470.04 459.63 470.41 447.92 C 470.24 446.40 471.53 445.49 472.40 444.48 Z"
       id="path15" />
    <path
       fill="#2d2d2d"
       opacity="1.00"
       d=" M 601.70 444.58 C 608.50 444.42 615.31 444.29 622.10 444.66 C 623.34 450.79 624.60 456.92 625.85 463.05 C 626.25 464.69 626.53 466.35 626.87 468.02 C 627.27 469.66 627.54 471.33 627.86 473.01 C 629.36 479.33 630.56 485.71 631.87 492.06 C 632.35 493.68 632.59 495.34 632.88 497.01 C 634.02 501.64 634.92 506.33 635.87 511.01 C 636.98 515.66 637.97 520.35 638.85 525.06 C 641.41 535.36 643.07 545.92 646.36 556.02 C 646.02 557.57 647.17 560.65 644.64 560.52 C 639.04 560.80 633.40 560.68 627.80 560.50 C 627.31 558.61 626.75 556.76 626.20 554.91 C 625.21 551.86 624.34 548.78 623.30 545.76 C 622.78 545.49 621.74 544.94 621.22 544.66 C 613.96 544.71 606.53 543.66 599.40 545.32 C 598.22 550.30 598.28 555.57 596.13 560.33 C 589.83 561.02 583.49 560.41 577.18 560.75 C 577.34 558.16 577.31 555.52 578.12 553.04 C 578.42 551.37 578.67 549.70 579.11 548.07 C 579.67 545.34 580.26 542.62 580.80 539.90 C 581.61 536.93 582.22 533.91 582.80 530.90 C 584.04 526.30 584.91 521.62 586.16 517.02 C 586.78 514.03 587.34 511.02 588.16 508.07 C 588.67 505.35 589.27 502.65 589.89 499.95 C 591.08 495.00 591.84 489.94 593.10 485.01 C 593.42 483.34 593.74 481.68 594.16 480.05 C 595.46 474.04 596.72 468.01 598.14 462.03 C 598.69 459.32 599.30 456.63 599.85 453.92 C 600.29 451.97 600.61 450.00 601.17 448.09 C 601.35 446.92 601.53 445.75 601.70 444.58 M 610.77 494.28 C 610.55 495.83 610.24 497.36 609.83 498.88 C 609.20 501.91 608.68 504.97 607.83 507.95 C 607.62 508.99 607.43 510.05 607.24 511.11 C 606.41 514.04 605.91 517.06 605.14 520.01 C 604.76 521.50 604.50 523.00 604.28 524.53 C 608.89 525.90 613.76 525.05 618.50 525.25 C 618.55 523.17 618.61 521.04 617.77 519.11 C 617.57 518.02 617.40 516.94 617.23 515.87 C 616.74 513.92 616.36 511.96 615.91 510.01 C 615.56 508.37 615.24 506.73 614.84 505.11 C 614.49 503.68 614.16 502.26 613.76 500.85 C 613.44 498.60 612.96 496.38 612.42 494.18 L 610.77 494.28 Z"
       id="path17" />
    <path
       fill="#2d2d2d"
       opacity="1.00"
       d=" M 679.34 445.57 C 681.97 444.04 685.08 444.52 687.99 444.45 C 691.29 444.53 694.59 444.29 697.89 444.50 C 699.19 444.50 699.77 445.84 700.34 446.80 C 701.69 453.57 703.53 460.24 704.91 467.01 C 705.27 468.34 705.53 469.68 705.83 471.04 C 706.21 472.68 706.54 474.33 706.91 475.99 C 707.27 477.33 707.53 478.68 707.85 480.04 C 708.24 481.68 708.54 483.34 708.89 485.01 C 709.81 488.26 710.21 491.64 711.24 494.86 C 711.42 495.93 711.60 497.00 711.79 498.08 C 712.83 501.28 713.20 504.65 714.25 507.85 C 714.43 508.90 714.62 509.95 714.83 511.01 C 715.25 512.33 715.56 513.67 715.92 515.02 C 716.21 516.22 716.49 517.43 716.76 518.65 L 718.43 518.74 C 718.96 516.49 719.50 514.25 720.14 512.04 C 720.45 510.68 720.77 509.35 721.18 508.03 C 721.36 506.98 721.55 505.94 721.75 504.90 C 723.65 497.29 725.26 489.60 726.81 481.90 C 727.30 479.95 727.70 477.99 728.20 476.04 C 728.36 475.27 728.66 473.72 728.82 472.94 C 729.68 469.99 730.16 466.94 730.84 463.95 C 731.28 462.32 731.67 460.68 732.14 459.06 C 733.07 455.37 734.11 451.70 735.09 448.02 C 735.91 446.40 737.14 444.69 739.13 444.58 C 744.47 444.35 749.85 444.35 755.20 444.71 C 755.66 446.10 756.08 447.51 756.42 448.96 C 755.85 450.28 755.49 451.68 755.18 453.10 C 754.83 454.42 754.50 455.76 754.19 457.10 C 753.82 458.42 753.50 459.76 753.22 461.11 C 752.76 462.73 752.36 464.37 751.88 466.00 C 751.55 467.32 751.26 468.67 750.90 469.99 C 750.56 471.31 750.27 472.66 749.91 473.98 C 749.53 475.28 749.21 476.61 748.84 477.92 C 747.70 482.67 746.35 487.37 745.23 492.13 C 744.76 493.74 744.36 495.39 743.87 497.00 C 743.55 498.32 743.25 499.65 742.90 500.98 C 742.54 502.28 742.21 503.61 741.83 504.93 C 740.35 510.99 738.69 517.01 737.20 523.07 C 736.72 524.70 736.33 526.35 735.89 528.00 C 735.55 529.31 735.25 530.65 734.88 531.96 C 734.53 533.28 734.22 534.61 733.86 535.94 C 733.53 537.26 733.23 538.61 732.87 539.94 C 732.53 541.26 732.21 542.60 731.83 543.92 C 731.50 545.25 731.18 546.59 730.85 547.94 C 730.52 549.26 730.26 550.61 729.90 551.94 C 729.53 553.27 729.21 554.63 728.85 555.97 C 728.35 557.74 727.80 559.50 727.26 561.26 C 726.72 561.50 725.63 561.97 725.08 562.21 C 719.63 562.34 714.16 562.47 708.78 561.52 C 706.45 557.75 706.38 553.18 704.75 549.15 C 704.25 547.06 703.71 545.00 703.15 542.95 C 702.37 540.65 701.76 538.31 701.18 535.97 C 700.71 534.35 700.28 532.72 699.79 531.12 C 698.97 527.70 698.03 524.32 697.13 520.93 C 696.74 519.63 696.43 518.29 696.14 516.98 C 695.68 515.33 695.26 513.68 694.81 512.05 C 694.49 510.72 694.17 509.39 693.82 508.09 C 693.49 506.75 693.17 505.42 692.82 504.10 C 692.49 502.76 692.17 501.43 691.81 500.11 C 691.49 498.76 691.17 497.41 690.82 496.09 C 690.49 494.74 690.17 493.41 689.82 492.09 C 689.49 490.75 689.15 489.41 688.79 488.10 C 688.58 487.05 688.37 486.02 688.18 484.99 C 687.67 483.36 687.26 481.70 686.80 480.07 C 686.03 475.70 684.89 471.40 683.79 467.10 C 683.33 464.34 682.68 461.61 681.78 458.96 C 681.14 455.99 680.68 452.98 679.70 450.10 C 679.55 448.59 679.44 447.07 679.34 445.57 Z"
       id="path19" />
    <path
       fill="#2d2d2d"
       opacity="1.00"
       d=" M 790.71 444.38 C 796.35 444.36 802.04 444.01 807.67 444.54 C 810.53 445.13 810.46 448.72 810.50 451.01 C 810.70 481.02 810.43 511.03 810.83 541.04 C 811.99 545.94 811.09 551.06 811.41 556.06 C 811.85 558.40 810.40 561.20 807.83 561.33 C 802.08 561.62 796.31 561.62 790.56 561.78 C 789.93 559.89 789.50 557.94 789.61 555.96 C 789.93 532.65 789.05 509.34 789.51 486.03 C 789.59 473.31 789.36 460.59 789.66 447.87 C 789.56 446.60 790.22 445.49 790.71 444.38 Z"
       id="path21" />
    <path
       fill="#2d2d2d"
       opacity="1.00"
       d=" M 847.79 444.66 C 852.16 444.52 856.54 444.33 860.92 444.51 C 861.90 444.56 862.73 444.98 863.41 445.78 C 864.02 448.27 865.24 450.55 866.25 452.91 C 866.78 454.63 867.48 456.30 868.31 457.91 C 868.85 459.62 869.48 461.30 870.29 462.91 C 871.73 466.66 873.31 470.35 874.75 474.10 C 875.60 476.02 876.37 477.98 877.22 479.92 C 877.78 481.62 878.45 483.28 879.25 484.91 C 879.79 486.62 880.47 488.30 881.29 489.92 C 882.14 492.29 883.14 494.62 884.21 496.91 C 884.76 498.63 885.47 500.30 886.30 501.92 C 887.57 505.30 889.26 508.51 890.64 511.85 C 891.07 511.77 891.95 511.61 892.39 511.52 C 892.36 510.29 892.34 509.07 892.32 507.86 C 891.38 505.34 891.83 502.61 891.76 499.99 C 891.55 483.96 891.46 467.94 891.21 451.91 C 890.72 450.16 890.56 448.35 890.56 446.55 C 890.91 446.11 891.63 445.21 891.98 444.77 C 898.06 444.11 904.21 444.43 910.32 444.73 C 911.18 477.47 910.54 510.27 910.66 543.04 C 910.58 549.14 910.84 555.25 910.46 561.36 C 904.92 561.73 899.36 562.06 893.83 561.49 C 892.49 559.04 891.24 556.54 890.24 553.94 C 889.18 551.62 888.14 549.30 887.25 546.92 C 886.16 544.62 885.15 542.28 884.24 539.91 C 883.15 537.60 882.14 535.26 881.21 532.90 C 880.15 530.59 879.19 528.25 878.24 525.90 C 877.22 523.58 876.20 521.26 875.29 518.90 C 874.40 516.98 873.62 515.03 872.78 513.11 C 871.98 511.02 871.07 508.97 870.23 506.91 C 868.99 504.33 868.04 501.61 866.73 499.07 C 866.25 497.88 865.77 496.70 865.29 495.53 C 864.86 495.47 863.99 495.37 863.55 495.31 C 863.64 506.21 863.64 517.12 863.72 528.02 C 864.71 539.09 864.48 550.24 864.34 561.34 C 857.75 561.84 851.12 561.66 844.53 561.56 C 844.15 542.06 844.71 522.56 844.52 503.06 C 844.49 484.81 844.20 466.55 844.51 448.31 C 844.28 446.21 846.17 445.35 847.79 444.66 Z"
       id="path23" />
    <path
       fill="#2d2d2d"
       opacity="1.00"
       d=" M 473.68 605.85 C 478.81 590.89 495.27 581.35 510.80 583.69 C 515.58 584.61 520.73 585.21 524.64 588.38 C 524.75 590.90 524.90 593.53 523.89 595.92 C 523.27 597.28 522.71 598.67 522.20 600.07 C 521.74 601.36 521.31 602.66 520.89 603.97 C 520.27 605.02 520.49 606.99 518.97 607.26 C 516.01 608.27 513.52 605.88 511.00 604.77 C 504.57 601.53 495.01 603.38 492.58 610.86 C 492.31 614.86 491.91 618.97 493.13 622.87 C 495.40 629.66 501.77 633.64 506.87 638.16 C 518.67 647.70 530.46 659.37 533.25 674.94 C 533.33 678.93 533.85 683.02 532.90 686.95 C 532.66 687.98 532.45 689.02 532.24 690.07 C 531.88 691.08 531.54 692.10 531.22 693.13 C 528.17 701.06 521.95 707.76 514.05 711.01 C 501.96 716.22 488.22 714.70 475.95 710.97 C 473.32 710.15 470.88 708.59 469.55 706.12 C 470.66 699.87 471.01 692.74 475.21 687.68 C 477.97 686.88 480.05 689.51 482.20 690.80 C 489.16 696.49 500.28 697.26 507.32 691.33 C 511.41 687.80 511.88 681.94 511.28 676.92 C 510.79 675.29 510.37 673.66 509.91 672.04 C 508.68 668.63 506.24 665.89 503.51 663.59 C 495.96 657.52 488.71 651.02 482.37 643.67 C 478.47 639.69 474.81 635.34 472.71 630.12 C 470.41 622.20 471.19 613.63 473.68 605.85 Z"
       id="path25" />
    <path
       fill="#2d2d2d"
       opacity="1.00"
       d=" M 602.07 587.12 C 614.59 581.90 629.42 583.91 640.65 591.32 C 648.85 596.43 655.18 604.17 659.26 612.88 C 660.23 615.58 661.16 618.30 661.90 621.08 C 662.32 622.70 662.61 624.33 662.96 625.98 C 663.46 627.96 663.61 630.01 663.86 632.05 C 664.90 636.60 664.47 641.34 664.66 645.98 C 664.48 651.30 665.05 656.73 663.87 661.96 C 663.61 663.64 663.41 665.35 663.21 667.06 C 662.30 670.32 661.80 673.68 660.90 676.95 C 660.36 678.67 659.80 680.39 659.26 682.13 C 656.91 688.33 653.85 694.39 649.19 699.19 C 639.21 709.39 624.43 715.84 610.06 712.98 C 595.97 709.89 582.86 700.45 577.21 686.91 C 573.36 677.72 571.03 667.84 570.17 657.92 C 568.89 648.35 569.71 638.56 571.10 629.05 C 571.69 624.64 572.74 620.30 574.16 616.08 C 574.71 614.66 575.25 613.23 575.75 611.80 C 581.15 600.75 590.48 591.50 602.07 587.12 M 612.68 602.77 C 604.16 605.37 598.09 612.91 594.74 620.87 C 593.51 624.08 592.67 627.41 591.80 630.74 C 591.58 632.80 591.37 634.88 590.77 636.88 C 590.07 645.25 590.03 653.68 590.75 662.05 C 591.78 666.35 592.65 670.71 594.24 674.87 C 596.54 681.78 601.31 688.29 608.39 690.79 C 616.61 694.57 626.65 692.29 633.30 686.45 C 639.08 680.75 641.31 672.66 643.24 665.03 C 643.46 662.69 643.62 660.34 644.26 658.08 C 644.63 652.36 644.62 646.61 644.25 640.89 C 643.17 634.23 642.56 627.36 639.74 621.13 C 637.02 614.29 632.39 607.88 625.80 604.36 C 621.83 602.18 617.05 601.76 612.68 602.77 Z"
       id="path27" />
    <path
       fill="#2d2d2d"
       opacity="1.00"
       d=" M 735.16 586.54 C 743.93 583.39 753.82 583.40 762.56 586.67 C 776.38 591.49 787.49 603.09 792.23 616.89 C 796.12 629.88 796.92 643.57 796.19 657.04 C 795.19 663.01 794.51 669.08 792.84 674.94 C 791.90 679.03 790.47 683.01 788.80 686.86 C 781.18 704.43 761.13 716.22 742.05 713.13 C 727.78 710.12 714.73 700.59 708.73 687.13 C 708.14 685.43 707.46 683.76 706.76 682.12 C 706.43 681.10 706.11 680.09 705.78 679.10 C 704.71 675.10 703.78 671.06 702.81 667.04 C 700.70 653.53 700.65 639.55 703.11 626.08 C 703.55 623.66 704.09 621.25 704.79 618.89 C 705.11 617.87 705.42 616.86 705.72 615.85 C 710.49 602.33 721.57 591.17 735.16 586.54 M 739.50 604.74 C 733.34 608.38 728.72 614.38 726.27 621.07 C 725.76 622.34 725.29 623.65 724.78 624.94 C 723.92 627.86 723.51 630.89 722.74 633.85 C 722.46 636.50 722.43 639.21 721.72 641.81 C 721.41 647.24 721.37 652.70 721.78 658.13 C 722.66 662.05 722.81 666.12 724.11 669.96 C 725.90 676.12 728.34 682.48 733.22 686.86 C 739.85 692.47 749.64 694.47 757.67 690.78 C 764.79 688.30 769.50 681.75 771.85 674.85 C 772.17 673.86 772.49 672.89 772.83 671.92 C 773.30 670.30 773.75 668.67 774.24 667.06 C 776.03 659.86 775.81 652.39 775.72 645.03 C 775.74 638.90 774.71 632.81 773.27 626.87 C 772.58 624.87 771.91 622.87 771.28 620.87 C 768.47 614.44 764.15 608.48 758.11 604.76 C 752.49 601.42 745.12 601.38 739.50 604.74 Z"
       id="path29" />
    <path
       fill="#2d2d2d"
       opacity="1.00"
       d=" M 835.69 584.41 C 847.15 583.86 858.61 584.18 870.07 584.38 C 887.16 586.31 900.37 600.45 906.28 615.89 C 906.89 617.92 907.52 619.95 908.25 621.96 C 908.42 622.97 908.62 623.99 908.83 625.01 C 909.92 629.24 910.62 633.62 910.60 637.99 C 910.51 642.35 911.43 646.68 910.71 651.03 C 910.70 658.79 910.35 666.60 908.26 674.13 C 907.76 675.39 907.28 676.67 906.78 677.94 C 902.34 688.69 896.03 699.84 885.13 705.11 C 870.36 711.53 853.87 712.13 838.01 711.47 C 835.73 711.61 833.87 710.37 832.51 708.70 C 832.75 690.79 832.81 672.87 832.72 654.96 C 832.73 652.32 832.51 649.62 833.26 647.06 C 833.44 644.01 833.44 640.95 833.26 637.90 C 832.43 635.01 832.80 631.99 832.76 629.04 C 832.74 617.68 832.79 606.32 832.72 594.95 C 832.61 591.99 833.49 589.13 833.76 586.20 C 834.24 585.75 835.21 584.86 835.69 584.41 M 855.42 605.40 C 854.28 609.15 854.77 613.13 854.87 616.99 C 855.70 622.22 855.72 627.79 854.87 633.03 C 854.63 644.36 854.75 655.70 854.81 667.04 C 856.29 671.66 854.79 676.51 854.89 681.22 C 854.89 683.14 856.22 685.53 854.35 686.99 C 855.11 687.92 855.53 689.01 855.61 690.26 C 856.71 690.55 857.84 690.85 858.97 691.18 C 864.69 691.50 870.81 690.18 875.04 686.08 C 881.85 680.25 885.35 671.63 887.25 663.08 C 888.06 653.69 887.70 644.24 887.29 634.84 C 886.69 632.89 886.44 630.87 886.26 628.85 C 883.71 621.02 880.47 612.22 872.95 607.90 C 867.57 605.53 861.22 603.60 855.42 605.40 Z"
       id="path31" />
  </g>
</svg>
