<?xml version="1.0" standalone="no"?>
<!DOCTYPE svg PUBLIC "-//W3C//DTD SVG 20010904//EN"
 "http://www.w3.org/TR/2001/REC-SVG-20010904/DTD/svg10.dtd">
<svg version="1.0" xmlns="http://www.w3.org/2000/svg"
 width="921.000000pt" height="921.000000pt" viewBox="0 0 921.000000 921.000000"
 preserveAspectRatio="xMidYMid meet">

<g transform="translate(0.000000,921.000000) scale(0.100000,-0.100000)"
fill="#262626" stroke="none">
<path d="M5352 9159 c-76 -9 -167 -50 -238 -107 -56 -44 -146 -171 -190 -267
-26 -55 -27 -63 -20 -167 15 -255 67 -347 273 -484 63 -42 121 -87 130 -101
15 -23 17 -83 17 -612 1 -322 -3 -639 -7 -703 l-9 -118 -682 0 -683 0 -24 26
-24 26 -3 694 -3 694 -863 0 c-475 0 -897 3 -939 6 -72 7 -77 8 -86 35 -34 99
-183 270 -281 323 -73 40 -185 52 -349 38 l-131 -11 -69 -46 c-139 -92 -281
-315 -281 -440 0 -129 40 -267 107 -367 103 -156 258 -235 494 -254 85 -6 86
-6 160 31 41 20 95 52 121 71 78 57 172 167 213 248 l38 76 788 0 788 0 3
-287 c2 -159 1 -416 -2 -573 l-5 -285 -487 -3 -488 -2 0 -484 0 -483 -31 -7
c-41 -8 -1352 -8 -1401 0 -34 6 -40 12 -63 62 -77 168 -227 298 -383 331 -74
15 -205 14 -281 -4 -179 -43 -339 -192 -392 -368 -18 -58 -21 -88 -17 -205 3
-128 6 -141 34 -202 59 -123 150 -214 300 -297 l69 -38 120 1 c245 1 369 66
499 262 35 53 79 112 98 130 l34 32 683 -2 684 -3 21 -28 c21 -28 21 -37 24
-585 3 -511 -3 -721 -24 -799 l-6 -23 -704 0 -704 0 0 -762 c0 -420 -3 -840
-7 -934 l-6 -170 -56 -22 c-177 -69 -359 -303 -369 -474 -11 -188 101 -411
260 -520 91 -61 155 -81 281 -86 64 -2 134 1 170 8 120 23 236 100 333 220 48
60 59 82 75 148 10 42 22 116 25 163 6 73 3 98 -16 160 -50 168 -143 277 -308
362 l-91 47 -3 328 c-2 180 -1 531 2 781 l5 453 45 18 c38 15 97 18 385 24
336 6 515 -1 651 -26 l64 -11 0 -482 0 -482 83 -6 c45 -4 265 -7 490 -7 l407
0 0 -719 0 -718 -96 -58 c-172 -104 -229 -176 -318 -395 -30 -73 -29 -114 6
-230 50 -161 168 -318 299 -397 73 -44 330 -58 440 -23 151 47 300 199 361
366 30 82 36 231 13 310 -40 141 -151 278 -288 358 -37 22 -82 57 -98 78 l-31
39 6 657 c3 361 8 677 12 701 l6 44 76 -7 c41 -3 360 -6 709 -6 l633 0 0 -704
0 -705 48 -6 c26 -3 55 -8 64 -9 9 -2 38 0 65 6 31 6 97 5 188 -3 88 -7 351
-11 705 -10 311 1 615 -1 675 -5 l110 -7 35 -60 c84 -145 222 -271 358 -328
120 -50 147 -49 327 7 l157 49 82 86 c86 90 134 172 155 264 17 73 7 266 -18
337 -49 143 -175 268 -348 344 -47 21 -68 24 -182 24 l-129 0 -93 -47 c-127
-63 -225 -161 -293 -291 l-47 -92 -780 0 -779 0 -12 27 c-17 38 -21 710 -6
946 l11 177 457 0 c252 0 472 3 489 6 l31 7 0 473 0 474 58 28 57 29 642 -1
642 -1 31 -30 c17 -17 62 -76 100 -131 80 -118 147 -181 233 -224 89 -43 159
-53 316 -46 132 7 134 7 190 43 75 49 218 195 259 265 l33 56 2 153 c2 186
-12 247 -85 355 -53 79 -112 129 -233 198 l-80 46 -153 0 c-136 0 -157 -2
-195 -21 -144 -73 -294 -227 -363 -373 l-19 -38 -707 4 c-389 2 -710 7 -715
11 -4 5 -8 306 -8 670 0 556 3 670 15 712 l15 50 600 -4 c330 -1 647 0 704 4
l104 8 -5 596 c-2 328 -2 746 1 929 l6 333 55 22 c77 32 136 74 208 151 139
149 192 367 136 557 -19 65 -48 103 -173 232 -87 89 -101 99 -161 118 -101 33
-282 38 -388 11 -97 -25 -147 -57 -230 -147 -172 -187 -209 -429 -101 -652 46
-95 171 -205 306 -268 l53 -26 0 -789 0 -790 -522 0 c-288 0 -547 3 -575 6
l-53 7 0 483 0 484 -484 0 -484 0 -20 78 c-20 74 -20 99 -16 680 4 739 -3 693
122 755 205 101 303 254 304 472 1 150 -17 240 -58 301 -44 65 -174 191 -244
236 -54 35 -57 36 -180 40 -69 2 -154 1 -188 -3z m317 -350 c101 -143 113
-231 49 -337 -98 -158 -280 -191 -445 -80 -72 49 -83 77 -83 218 l0 123 69 67
c38 38 80 70 93 73 12 2 78 5 145 6 l122 1 50 -71z m-4082 -655 c26 -16 73
-60 105 -98 l58 -69 0 -92 0 -92 -92 -96 -93 -97 -96 0 -96 0 -69 58 c-96 81
-126 131 -127 219 0 53 5 78 23 113 18 36 69 117 86 139 2 2 39 15 81 27 99
30 157 27 220 -12z m6407 -129 c45 -19 114 -81 161 -145 33 -45 35 -52 35
-129 l0 -81 -72 -82 c-103 -114 -107 -117 -216 -125 l-93 -6 -99 100 -100 99
0 101 0 100 88 84 c50 49 102 90 122 96 43 15 124 9 174 -12z m-2021 -1712
l367 -6 0 -1698 0 -1698 -862 -3 c-475 -2 -1248 -2 -1719 0 l-856 3 -9 277
c-5 152 -7 345 -4 427 6 189 6 1066 0 1910 -4 517 -2 665 8 723 l14 72 1346 0
c741 0 1512 -3 1715 -7z m-5228 -593 c11 -4 48 -40 83 -78 l62 -71 0 -108 0
-108 -85 -85 -85 -85 -78 1 c-119 2 -277 74 -293 134 -13 48 -10 259 5 294 20
47 78 91 175 130 l86 34 55 -25 c30 -14 64 -28 75 -33z m7989 -1711 c33 -12
77 -38 99 -58 l39 -37 6 -112 c8 -179 -7 -210 -158 -312 -63 -43 -64 -43 -109
-31 -77 20 -147 57 -196 102 -69 63 -75 81 -75 210 l0 112 68 71 c37 39 74 74
82 78 29 15 183 0 244 -23z m-7307 -2270 c24 -12 74 -54 114 -97 l70 -77 -3
-70 c-6 -127 -86 -244 -205 -300 l-53 -26 -70 25 c-97 35 -140 59 -177 98 -74
77 -93 189 -49 284 39 85 110 152 184 174 53 16 144 11 189 -11z m6485 -172
c35 -29 77 -73 93 -96 28 -40 30 -49 30 -129 0 -71 -5 -95 -23 -130 -103 -194
-312 -230 -461 -80 -62 64 -86 119 -86 203 1 83 22 130 87 191 100 94 100 94
204 94 l94 0 62 -53z m-3967 -734 c57 -73 86 -150 87 -228 0 -76 -19 -122 -77
-184 -60 -64 -94 -75 -230 -73 l-110 1 -61 66 c-69 74 -84 112 -84 207 0 94
20 140 86 201 65 60 79 64 236 66 l108 1 45 -57z"/>
</g>
</svg>
