<svg version="1.1" id="Layer_1" xmlns="http://www.w3.org/2000/svg" xmlns:xlink="http://www.w3.org/1999/xlink" x="0px" y="0px" width="100%" viewBox="0 0 1024 496" enable-background="new 0 0 1024 496" xml:space="preserve">
	<path class="change-fill" fill="#262626" opacity="1.000000" stroke="none" d=" M197.502396,161.672546 C204.277145,155.392471 212.103317,155.446152 217.000183,161.486313 C221.931839,167.569397 220.680862,174.706558 213.552536,179.941986 C211.879807,181.170547 211.070892,182.473541 211.076187,184.470139 C211.095673,191.801346 211.153839,199.133850 211.039536,206.463394 C210.988159,209.758606 212.464706,210.870209 215.596878,210.743896 C219.422867,210.589569 223.266785,210.854614 227.090424,210.673660 C230.819641,210.497192 232.193787,212.278061 232.155365,215.750946 C232.111130,219.749115 232.243118,223.749802 232.165863,227.746841 C232.112946,230.484375 233.254333,231.694199 236.027664,231.641052 C240.858002,231.548462 245.692596,231.540359 250.522858,231.631256 C253.413818,231.685638 254.842575,230.589874 254.820541,227.555832 C254.760010,219.225250 254.752243,210.893036 254.860199,202.563248 C254.893097,200.023544 253.614716,198.700821 251.660782,197.415329 C247.371582,194.593491 245.419296,190.407257 246.260880,185.383591 C247.172440,179.942154 250.741501,176.463211 256.019958,175.135910 C261.055420,173.869720 265.238403,175.936401 268.471436,179.705521 C273.096344,185.097305 272.055115,193.015549 265.904022,197.143921 C262.988495,199.100708 262.102051,201.268005 262.155975,204.564606 C262.311188,214.059570 262.026611,223.563599 262.280457,233.054291 C262.404724,237.699188 260.573608,239.274155 256.115082,239.129303 C249.624054,238.918411 243.120377,239.106079 236.622101,239.102585 C234.283585,239.101334 232.202698,239.342407 232.208969,242.446747 C232.225037,250.414276 232.214310,258.381836 232.214310,267.344360 C241.747742,267.344360 250.841858,267.376465 259.935364,267.316223 C261.668304,267.304749 262.293213,265.712524 263.180878,264.505554 C267.000183,259.312469 271.986694,257.529907 277.555481,259.281769 C282.810272,260.934845 286.429047,265.951080 286.281189,271.377045 C286.139557,276.575317 282.503357,281.238068 277.341888,282.840088 C272.037140,284.486633 266.777344,282.556152 263.124207,277.278564 C261.738586,275.276794 260.201294,274.319427 257.786377,274.345093 C250.622345,274.421234 243.455948,274.454865 236.292816,274.347687 C233.285599,274.302673 232.078766,275.531250 232.151932,278.498871 C232.254547,282.661438 232.103256,286.829681 232.159866,290.994171 C232.202621,294.140228 230.850098,295.517609 227.627502,295.387756 C223.635086,295.226868 219.626755,295.467346 215.633667,295.315186 C212.520035,295.196472 210.974060,296.257355 211.061783,299.576630 C211.189377,304.405090 211.119873,309.239838 211.073532,314.071320 C211.047501,316.783630 212.302444,318.011719 215.012665,317.998016 C223.510086,317.955078 232.009247,317.881958 240.504776,318.012482 C243.891785,318.064514 244.790588,315.250671 246.587311,313.451569 C250.527832,309.505829 255.858917,308.437897 260.804260,310.678925 C265.548828,312.829010 268.464142,317.645294 268.092072,322.719025 C267.715424,327.855743 263.902618,332.372620 258.702271,333.842804 C253.809723,335.225922 248.584442,333.588806 245.630020,328.909698 C243.714478,325.875946 241.431396,325.196442 238.193024,325.239624 C228.530609,325.368439 218.862503,325.145264 209.202438,325.343292 C205.069702,325.427979 203.538498,323.883301 203.665802,319.792572 C203.867783,313.300812 203.556488,306.793182 203.753448,300.301117 C203.862106,296.719696 202.800766,295.148560 198.963638,295.290070 C192.474167,295.529388 185.966980,295.459778 179.472153,295.308502 C176.225388,295.232880 174.995499,296.523651 175.056274,299.719025 C175.179855,306.214935 175.208679,312.717529 175.050278,319.211853 C174.967361,322.611145 175.733688,325.073029 178.758453,327.246002 C183.464874,330.627075 184.718063,335.988861 182.842682,341.043579 C181.030380,345.928284 175.975067,349.389099 170.834534,349.264343 C165.499481,349.134796 160.697998,345.355743 159.072433,340.006775 C157.614059,335.207886 159.160233,330.098999 163.876190,326.881134 C166.935944,324.793365 167.814560,322.394043 167.707886,318.938873 C167.512589,312.613159 167.525558,306.273834 167.696884,299.946808 C167.791702,296.444733 166.377563,295.159302 162.966949,295.312408 C159.142548,295.484131 155.296768,295.193573 151.473953,295.381897 C147.871246,295.559326 146.315002,294.316925 146.519913,290.508972 C146.743011,286.363098 146.337387,282.187347 146.380768,278.026459 C146.410675,275.159546 145.064194,274.272125 142.380905,274.339203 C137.551834,274.459900 132.712845,274.507721 127.887161,274.333069 C124.285095,274.202728 123.304443,275.900269 123.357048,279.191162 C123.484871,287.186981 123.450371,295.186951 123.355827,303.183777 C123.327187,305.605865 124.164650,307.101624 126.263603,308.452454 C131.440155,311.783997 133.296875,316.826782 131.750015,322.168579 C130.211578,327.481323 125.391220,331.167664 119.930107,331.207794 C114.452370,331.248047 109.663422,327.774475 107.838013,322.436951 C106.175034,317.574371 107.815292,312.116669 112.626976,308.899384 C115.451744,307.010620 116.006935,304.764191 115.982338,301.750183 C115.903511,292.086853 116.071457,282.421082 115.949409,272.758728 C115.898331,268.714294 117.591766,267.004578 121.585548,267.048981 C129.705444,267.139313 137.827042,267.075989 146.340332,267.075989 C146.340332,258.547302 146.319290,250.430466 146.352188,242.313843 C146.363113,239.616882 144.867935,239.018967 142.502548,239.043594 C135.005295,239.121597 127.504082,239.194717 120.010040,239.023239 C116.918259,238.952499 115.770691,241.079056 114.136536,242.944336 C109.088303,248.706543 100.607414,248.923843 95.600807,243.522980 C90.611885,238.141174 91.233620,230.087662 96.999222,225.409012 C102.390465,221.034119 110.490700,221.902374 114.618675,227.923264 C116.770073,231.061188 119.147659,231.768478 122.548988,231.669159 C128.542267,231.494156 134.562683,231.336227 140.537247,231.715134 C145.529556,232.031754 147.136841,230.040390 146.612457,225.349731 C146.298981,222.545731 146.488464,219.689346 146.297501,216.866959 C146.008331,212.592728 147.335403,210.209763 152.196091,210.641678 C155.832748,210.964813 159.525681,210.592636 163.186325,210.727036 C166.347137,210.843079 167.770309,209.631744 167.665771,206.359009 C167.516891,201.698303 167.549820,197.027817 167.649231,192.364594 C167.712357,189.403030 166.431702,188.110641 163.489792,188.122284 C154.992340,188.155914 146.493591,188.175735 137.997528,188.050903 C135.400406,188.012726 134.244385,189.544357 132.886902,191.343979 C129.192932,196.241013 123.461929,197.909393 118.295815,195.834183 C113.475456,193.897827 109.806953,188.441467 110.148453,183.716125 C110.554794,178.093643 114.521454,173.459366 120.271339,172.089371 C125.407639,170.865555 129.727020,172.759445 132.524826,176.852371 C134.746948,180.103149 137.303284,180.843521 140.889877,180.777954 C150.384338,180.604370 159.888351,180.882034 169.379532,180.633820 C173.814133,180.517838 175.301498,182.277176 175.166672,186.505615 C174.964951,192.831085 175.237198,199.171494 175.043686,205.497482 C174.928802,209.253586 176.039536,210.964539 180.144363,210.780350 C186.629715,210.489365 193.139282,210.610504 199.635086,210.737518 C202.655945,210.796555 203.806412,209.612106 203.729721,206.611664 C203.593536,201.283279 203.548035,195.943314 203.743088,190.618393 C203.929672,185.524460 203.711823,181.299210 198.622238,177.785614 C193.627548,174.337540 193.808197,168.798843 197.502396,161.672546 M224.802292,260.500000 C224.799500,248.015869 224.750092,235.531433 224.827118,223.047791 C224.846054,219.976639 224.312820,217.897034 220.567581,217.884323 C199.766632,217.813660 178.966095,217.623962 158.165207,217.519485 C155.007675,217.503616 153.338837,218.919373 153.353745,222.405853 C153.441895,243.045639 153.436264,263.686096 153.368240,284.326019 C153.357574,287.559021 154.653412,288.708923 157.838593,288.695831 C178.645111,288.610168 199.452438,288.582397 220.258652,288.692688 C223.808258,288.711487 224.910461,287.340363 224.842834,283.970459 C224.692612,276.483032 224.799896,268.990479 224.802292,260.500000 M105.898079,230.041199 C103.571518,229.542007 101.556465,230.098160 100.295006,232.165268 C98.706482,234.768311 98.935913,237.391541 101.470596,239.194717 C104.134659,241.089951 107.082596,240.767639 108.877312,238.026337 C110.936592,234.880981 110.086380,232.033463 105.898079,230.041199 M272.230438,265.963837 C268.690338,267.476624 267.336304,270.025391 269.286713,273.492676 C270.455322,275.570160 272.444794,277.025604 275.121490,276.137268 C277.837311,275.235962 279.147247,273.229828 278.790283,270.379425 C278.364410,266.978790 276.232452,265.555786 272.230438,265.963837 M120.400436,323.869110 C122.573006,323.635040 124.154160,322.612213 124.635330,320.390533 C125.323257,317.214203 124.273338,314.733643 121.074776,313.786530 C117.791611,312.814362 115.488617,314.532288 114.703445,317.584320 C113.702805,321.473938 115.932678,323.378815 120.400436,323.869110 M259.908173,318.808075 C257.964752,316.509369 255.599930,315.684082 252.948303,317.355652 C250.623047,318.821411 249.680969,321.112488 250.762711,323.757416 C251.964951,326.696930 254.459747,327.440552 257.282837,326.570831 C260.942841,325.443298 261.296692,322.671326 259.908173,318.808075 M123.343933,189.592957 C126.841881,188.771362 128.229477,186.461792 127.726685,183.040222 C127.361717,180.556549 125.536087,179.483521 123.221634,179.229416 C120.556747,178.936813 118.642036,180.280991 117.883995,182.671951 C116.582336,186.777527 118.819016,188.801147 123.343933,189.592957 M253.410370,187.477524 C254.210709,191.421143 256.428864,193.409256 260.490692,192.054611 C262.959991,191.231094 264.044617,189.162888 263.756805,186.517822 C263.484741,184.018036 261.945190,182.625427 259.578278,182.254700 C256.110748,181.711594 254.357758,183.689056 253.410370,187.477524 M172.830704,341.625702 C175.416199,340.515228 176.756424,338.608948 176.198822,335.772186 C175.636490,332.911407 173.554398,331.473816 170.828552,331.666229 C167.801697,331.879883 166.019104,333.853119 166.105484,336.973114 C166.210861,340.779114 168.535812,342.110962 172.830704,341.625702 M202.228821,169.458313 C202.815918,173.584747 205.201523,175.335754 209.172897,174.139862 C211.620438,173.402832 212.931000,171.305817 212.489151,168.694153 C212.108734,166.445419 210.786148,164.667816 208.307068,164.365829 C205.040176,163.967865 202.813202,165.211746 202.228821,169.458313 z"/>
	<path class="change-fill" fill="#262626" opacity="1.000000" stroke="none" d=" M461.952759,273.148865 C463.629395,275.658264 465.499878,277.042023 468.335907,276.904938 C469.388458,276.854004 470.297455,277.559540 470.506317,278.638885 C470.744354,279.869202 469.808441,280.639862 468.798462,280.653351 C461.178467,280.755035 453.538452,281.586182 445.952576,280.212219 C445.593872,280.147278 445.332367,279.545898 445.087738,279.265594 C445.306000,276.670227 448.294891,277.644867 449.254852,275.426483 C444.177582,269.022278 438.964294,262.446503 433.751007,255.870728 C433.323090,255.977463 432.895203,256.084198 432.467285,256.190918 C432.467285,262.534027 432.408417,268.878021 432.508392,275.219543 C432.533569,276.816711 433.888092,277.341461 435.343170,277.452484 C436.615845,277.549622 438.098816,277.172089 438.687347,278.878601 C435.735107,281.519348 418.962982,281.911133 414.508362,279.449341 C414.577179,279.134949 414.630707,278.553741 414.726990,278.546600 C421.390808,278.050262 420.897186,273.450409 420.806732,268.628906 C420.607025,257.981415 420.674072,247.325195 420.854889,236.676315 C420.921021,232.781845 420.660400,229.621292 415.645569,229.750031 C415.370392,229.757095 415.034546,229.478668 414.821838,229.246246 C414.612244,229.017242 414.523376,228.677750 414.385010,228.385040 C417.972229,225.995560 436.022034,225.947876 438.642212,228.332321 C437.562775,231.110947 434.679810,229.208603 432.605042,230.782974 C432.605042,236.836899 432.605042,243.188095 432.605042,250.730942 C438.921112,243.701675 444.490295,237.503632 450.040771,231.326401 C448.643616,229.425659 445.980072,230.631882 445.276123,228.433594 C448.190521,225.015335 460.243011,224.833679 463.920227,228.152557 C463.892181,229.154663 463.096222,229.972977 462.409943,229.816452 C456.218384,228.404205 453.701111,233.310318 450.298004,236.692352 C449.591156,237.394836 448.937439,238.152161 448.277832,238.900604 C440.821106,247.362045 440.832092,247.354675 448.142792,256.255554 C452.682495,261.782745 457.186249,267.339447 461.952759,273.148865 z"/>
	<path class="change-fill" fill="#262626" opacity="1.000000" stroke="none" d=" M899.533020,228.828430 C899.600830,226.435699 901.225891,226.233154 902.695618,226.230652 C912.165161,226.214554 921.695740,225.201630 931.079102,227.013062 C945.908264,229.875748 954.064026,243.765060 951.062134,259.644287 C948.631653,272.501587 938.812073,280.681732 926.326355,280.374176 C918.858337,280.190186 911.373657,280.709534 903.895630,280.875671 C902.293213,280.911285 900.493469,281.296356 899.619568,279.297241 C899.728638,278.964172 899.809204,278.405060 899.929443,278.396393 C905.364319,278.004272 906.179138,274.636780 906.045898,269.938263 C905.749023,259.464905 905.628784,248.971313 905.955139,238.502151 C906.111206,233.495651 905.467346,229.832718 899.533020,228.828430 M938.781616,250.630508 C938.773682,249.633804 938.796448,248.635773 938.753235,247.640594 C938.182251,234.488373 934.184998,230.179688 922.980469,230.177551 C919.724792,230.176926 918.177979,231.074631 917.904907,234.556168 C916.863586,247.828033 917.694336,261.108307 917.483276,274.381287 C917.460938,275.790161 918.105713,276.872040 919.581787,277.423401 C925.749268,279.727051 934.979675,275.196228 937.156433,268.856110 C939.093384,263.214294 938.711548,257.388580 938.781616,250.630508 z"/>
	<path class="change-fill" fill="#262626" opacity="1.000000" stroke="none" d=" M360.749451,194.064819 C363.637726,194.801224 363.323944,196.829376 363.324799,198.609558 C363.341888,234.234833 363.283051,269.860291 363.404297,305.485138 C363.418518,309.669952 361.577850,310.488495 357.960968,310.438721 C354.410492,310.389862 351.847870,310.133270 351.861603,305.490387 C351.966431,270.031891 351.966766,234.572876 351.890656,199.114258 C351.876251,192.392517 356.572479,194.163040 360.749451,194.064819 z"/>
	<path class="change-fill" fill="#262626" opacity="1.000000" stroke="none" d=" M840.148682,264.491821 C836.701599,254.356354 836.560852,244.906570 842.808899,236.040222 C849.186096,226.990601 859.067017,222.456360 868.739746,225.089691 C879.368713,227.983383 885.729004,235.652054 888.006531,246.062454 C891.131042,260.344574 883.377502,274.618500 870.957886,279.062927 C860.752625,282.714935 850.160156,279.333282 843.792480,270.329865 C842.544617,268.565521 841.486816,266.666687 840.148682,264.491821 M851.270264,239.978058 C850.737183,248.293854 850.878967,256.609406 851.233826,264.927490 C851.334961,267.298187 851.803345,269.580963 852.895508,271.657990 C855.421997,276.462677 859.699829,277.565857 864.726746,277.103638 C869.731873,276.643402 873.673950,274.390259 874.369995,269.288757 C875.854797,258.406006 876.593201,247.429672 874.443665,236.518738 C873.329041,230.860992 870.150085,228.331543 864.360291,228.040024 C856.292480,227.633789 852.780090,230.610504 851.270264,239.978058 z"/>
	<path class="change-fill" fill="#262626" opacity="1.000000" stroke="none" d=" M811.346191,226.192490 C831.341309,237.265747 833.600769,262.183044 815.929810,275.695801 C804.668945,284.306824 792.879761,282.119568 783.730164,271.350006 C772.960327,258.673340 774.918396,240.129807 787.847107,229.595703 C794.746582,223.974121 802.702759,223.498459 811.346191,226.192490 M813.239685,270.367432 C814.745178,259.800293 815.270386,249.225830 813.818298,238.593613 C812.806641,231.186096 809.565552,228.025833 802.547302,227.972794 C794.950867,227.915344 791.155518,231.235992 790.328186,238.819214 C789.332581,247.945389 789.719788,257.091095 790.410522,266.204224 C790.902161,272.690613 793.851685,275.948212 799.462463,277.159821 C805.003296,278.356384 809.723389,276.241241 813.239685,270.367432 z"/>
	<path class="change-fill" fill="#262626" opacity="1.000000" stroke="none" d=" M667.614014,242.031921 C667.614441,240.209702 667.553650,238.873489 667.627075,237.544678 C667.848877,233.532654 667.990356,229.645065 662.219788,229.742859 C661.799255,229.749969 661.364136,228.901001 660.929443,228.443329 C663.892395,225.825211 674.680908,225.876358 677.595581,228.365234 C677.558838,228.517929 677.538147,228.798340 677.483093,228.805252 C669.674561,229.785324 671.334106,235.692398 671.317139,240.688309 C671.277039,252.515656 671.281982,264.343170 671.244690,276.170532 C671.239563,277.795380 671.712219,279.906219 669.808350,280.587921 C667.532959,281.402679 666.747131,279.165100 665.771240,277.705170 C656.344727,263.603149 646.942749,249.484787 637.285400,234.998688 C635.809692,236.807587 636.302917,238.489044 636.293884,239.979218 C636.231506,250.308304 636.390259,260.640808 636.173462,270.965820 C636.084961,275.179230 636.473022,278.317780 641.830750,277.763672 C642.418396,277.702942 642.956848,278.404663 642.913208,280.049042 C637.258667,280.603485 631.563110,281.257812 625.988831,280.264496 C625.618774,278.519623 626.124573,277.677124 626.978333,277.635681 C632.290466,277.377960 632.375732,274.327240 632.303162,269.869751 C632.110901,258.067383 631.051636,246.237015 632.479065,234.435913 C632.787415,231.886719 632.029358,230.197815 629.024170,230.250763 C627.374390,230.279831 625.158569,230.225403 625.598389,227.850494 C625.994873,225.709091 628.071045,226.137680 629.748352,226.476135 C630.235962,226.574509 630.768616,226.731537 631.230957,226.631729 C642.586426,224.180603 649.045471,229.784058 653.926147,239.390778 C657.203003,245.840668 661.858765,251.590042 666.591003,258.693756 C668.406067,252.590057 667.252258,247.487183 667.614014,242.031921 z"/>
	<path class="change-fill" fill="#262626" opacity="1.000000" stroke="none" d=" M728.856934,268.347992 C728.926331,266.591583 728.915588,265.129456 730.521362,264.660034 C732.114807,264.194244 732.915588,265.399261 733.717224,266.490326 C735.781494,269.299744 737.673706,272.263000 739.973328,274.865509 C743.203613,278.521332 750.403320,278.972290 754.712830,276.089722 C758.955383,273.251953 760.474060,268.448761 758.725586,263.881653 C757.007629,259.394196 752.938477,258.768433 749.073486,257.838409 C745.075806,256.876465 740.849976,257.164093 737.085693,254.865067 C731.023193,251.162476 728.244751,244.851654 729.846802,237.351486 C730.964539,232.118713 737.388672,226.319763 743.022766,225.859818 C746.811584,225.550507 750.693604,225.271194 754.334167,226.938232 C755.408752,227.430283 756.527954,227.950577 757.687561,227.487442 C762.363525,225.620041 763.345398,228.276810 763.182068,232.045227 C763.043335,235.246964 764.282288,238.620224 762.447388,241.614548 C759.731079,242.165634 759.094666,240.171005 758.163513,238.711960 C756.356079,235.879761 754.188354,233.363815 751.631409,231.212509 C748.299438,228.409088 744.515442,228.421158 740.906738,230.347717 C737.591919,232.117340 735.746887,235.083069 736.372314,239.032486 C737.072876,243.455887 740.580139,244.688843 744.267578,245.477219 C746.860168,246.031494 749.527161,246.229523 752.131653,246.737122 C758.911865,248.058578 764.362915,251.073944 766.263000,258.346954 C768.101807,265.385254 765.457581,273.121521 759.618286,277.430756 C753.340027,282.063934 746.395020,282.535828 739.264099,279.962128 C737.134338,279.193420 735.557129,278.328308 733.363770,279.966827 C730.894714,281.811249 729.830811,280.269409 729.643555,277.694183 C729.426758,274.713959 729.125610,271.739807 728.856934,268.347992 z"/>
	<path class="change-fill" fill="#262626" opacity="1.000000" stroke="none" d=" M506.155090,264.455017 C505.105042,264.515472 504.441467,264.574768 503.776794,264.615265 C494.577972,265.175690 492.987610,266.746124 491.602600,276.668182 C493.120422,278.705322 496.419281,276.131714 497.654785,278.947174 C494.920288,281.325439 483.291931,281.430908 480.535645,278.821014 C491.951904,276.354980 489.918610,265.392548 493.446350,258.124634 C497.924286,248.899002 500.679169,238.838013 504.198944,229.145157 C504.660156,227.875046 505.268341,226.588776 506.865112,226.527069 C508.877502,226.449341 509.072754,228.116943 509.592651,229.524200 C514.143372,241.842575 518.720764,254.151108 523.308044,266.455902 C524.351074,269.253693 525.624695,271.975952 526.501221,274.822571 C527.531494,278.168701 530.872559,277.125092 533.168640,278.204803 C530.445251,281.406555 512.317139,281.446106 509.432800,278.550140 C510.526184,276.549377 513.073792,278.458740 514.264526,276.765137 C513.238953,267.947784 511.405182,265.022186 506.155090,264.455017 M505.383453,250.178452 C504.656219,248.791916 504.861267,246.850250 502.666718,245.929947 C500.339417,250.784012 498.090637,255.550613 497.392609,261.100433 C501.456848,261.100433 504.861755,261.100433 508.406342,261.100433 C508.850403,257.080261 506.342712,254.225632 505.383453,250.178452 z"/>
	<path class="change-fill" fill="#262626" opacity="1.000000" stroke="none" d=" M546.266663,264.638733 C542.501587,254.454224 538.493896,244.749893 535.449097,234.752319 C534.126160,230.408463 529.735413,232.021515 527.927124,229.356796 C531.198303,225.917923 548.305908,225.885498 551.779663,229.198456 C550.908142,231.875854 548.130859,229.971252 546.102966,231.778702 C549.855225,241.882385 553.689148,252.206024 557.523071,262.529663 C557.906860,262.542358 558.290649,262.555084 558.674377,262.567780 C562.272156,252.101166 565.869873,241.634537 569.363037,231.472137 C567.265503,229.531113 564.684753,231.272293 563.415222,229.131241 C566.522095,226.282639 575.098999,226.000748 579.811951,229.021149 C569.791870,231.189941 570.887512,240.215103 568.279968,246.761948 C564.103333,257.248047 560.700378,268.041809 556.937317,278.693878 C556.506042,279.914703 556.200134,281.304413 553.989502,282.061829 C550.124329,277.099457 548.900269,270.738281 546.266663,264.638733 z"/>
	<path class="change-fill" fill="#262626" opacity="1.000000" stroke="none" d=" M603.807861,280.876892 C598.992371,280.609802 594.480530,281.727234 590.590271,279.966492 C590.161316,278.555206 590.646545,277.634430 591.103455,277.683472 C597.633545,278.384186 596.693115,273.877625 596.620056,269.935516 C596.397766,257.952240 595.924011,245.964767 596.102478,233.987198 C596.174988,229.119522 592.235657,230.133591 589.665222,229.030746 C592.907776,225.011597 610.995789,224.724472 614.375427,228.691315 C605.942627,229.058609 608.300842,235.105240 608.248596,239.787704 C608.135193,249.951263 608.257019,260.117249 608.207275,270.281860 C608.190063,273.790131 608.014221,277.199005 613.105835,276.961945 C613.904053,276.924774 614.555664,277.703888 614.486633,279.137207 C611.494263,281.219177 607.751282,280.409698 603.807861,280.876892 z"/>
</svg>